<svg width="30" height="30" viewBox="0 0 30 30" fill="none" xmlns="http://www.w3.org/2000/svg">
<path d="M15 16.169L10.8545 20.1808C10.7568 20.2754 10.6396 20.3226 10.5029 20.3226C10.3597 20.3226 10.2393 20.2769 10.1416 20.1856C10.0472 20.091 10 19.9745 10 19.8359C10 19.7036 10.0488 19.5902 10.1465 19.4957L14.292 15.4839L10.1465 11.4721C10.0488 11.3776 10 11.2626 10 11.1271C10 11.061 10.013 10.998 10.0391 10.9381C10.0651 10.8783 10.1009 10.8279 10.1465 10.7869C10.1921 10.7428 10.2458 10.7082 10.3076 10.683C10.3695 10.6578 10.4346 10.6452 10.5029 10.6452C10.6396 10.6452 10.7568 10.6924 10.8545 10.7869L15 14.7987L19.1455 10.7869C19.2432 10.6924 19.362 10.6452 19.502 10.6452C19.5703 10.6452 19.6338 10.6578 19.6924 10.683C19.7542 10.7082 19.8079 10.7428 19.8535 10.7869C19.8991 10.8311 19.9349 10.883 19.9609 10.9428C19.987 10.9996 20 11.061 20 11.1271C20 11.2626 19.9512 11.3776 19.8535 11.4721L15.708 15.4839L19.8535 19.4957C19.9512 19.5902 20 19.7036 20 19.8359C20 19.902 19.987 19.965 19.9609 20.0249C19.9349 20.0847 19.8991 20.1367 19.8535 20.1808C19.8112 20.2249 19.7591 20.2596 19.6973 20.2848C19.6354 20.31 19.5703 20.3226 19.502 20.3226C19.362 20.3226 19.2432 20.2754 19.1455 20.1808L15 16.169Z" fill="black" fill-opacity="0.8956"/>
</svg>
