<svg width="146" height="54" viewBox="0 0 146 54" fill="none" xmlns="http://www.w3.org/2000/svg">
<path d="M3.4751 45.3885C3.40657 45.2066 3.27013 45.0585 3.09453 44.9753C2.91893 44.892 2.71787 44.8802 2.53372 44.9423C2.34957 45.0043 2.1967 45.1355 2.10732 45.308C2.01794 45.4806 1.99903 45.6811 2.05457 45.8673L3.86149 51.2278C3.92509 51.4161 4.06083 51.5715 4.2389 51.6598C4.41697 51.748 4.62279 51.762 4.81117 51.6987L10.1717 49.8918C10.3535 49.8232 10.5017 49.6868 10.5849 49.5112C10.6681 49.3356 10.68 49.1345 10.6179 48.9504C10.5558 48.7662 10.4247 48.6134 10.2521 48.524C10.0796 48.4346 9.87907 48.4157 9.69285 48.4712L6.0477 49.6999L8.46414 44.8261C9.32899 43.0817 10.1588 41.9595 11.0665 41.2432C11.9577 40.5398 12.9797 40.1826 14.3192 40.0766C14.4174 40.0687 14.5131 40.0416 14.6009 39.9967C14.6886 39.9518 14.7666 39.8901 14.8305 39.8151C14.8944 39.7401 14.9429 39.6532 14.9732 39.5594C15.0035 39.4657 15.0151 39.3668 15.0072 39.2686C14.9993 39.1704 14.9722 39.0747 14.9273 38.9869C14.8824 38.8992 14.8207 38.8212 14.7457 38.7573C14.6707 38.6934 14.5838 38.6449 14.49 38.6146C14.3963 38.5843 14.2975 38.5727 14.1992 38.5806C12.6335 38.7062 11.3099 39.1404 10.1372 40.0647C8.98202 40.9765 8.03219 42.3204 7.12025 44.1598L4.70381 49.0336L3.4751 45.3885Z" fill="url(#paint0_linear_271_110)"/>
<path d="M3.4751 45.3885C3.40657 45.2066 3.27013 45.0585 3.09453 44.9753C2.91893 44.892 2.71787 44.8802 2.53372 44.9423C2.34957 45.0043 2.1967 45.1355 2.10732 45.308C2.01794 45.4806 1.99903 45.6811 2.05457 45.8673L3.86149 51.2278C3.92509 51.4161 4.06083 51.5715 4.2389 51.6598C4.41697 51.748 4.62279 51.762 4.81117 51.6987L10.1717 49.8918C10.3535 49.8232 10.5017 49.6868 10.5849 49.5112C10.6681 49.3356 10.68 49.1345 10.6179 48.9504C10.5558 48.7662 10.4247 48.6134 10.2521 48.524C10.0796 48.4346 9.87907 48.4157 9.69285 48.4712L6.0477 49.6999L8.46414 44.8261C9.32899 43.0817 10.1588 41.9595 11.0665 41.2432C11.9577 40.5398 12.9797 40.1826 14.3192 40.0766C14.4174 40.0687 14.5131 40.0416 14.6009 39.9967C14.6886 39.9518 14.7666 39.8901 14.8305 39.8151C14.8944 39.7401 14.9429 39.6532 14.9732 39.5594C15.0035 39.4657 15.0151 39.3668 15.0072 39.2686C14.9993 39.1704 14.9722 39.0747 14.9273 38.9869C14.8824 38.8992 14.8207 38.8212 14.7457 38.7573C14.6707 38.6934 14.5838 38.6449 14.49 38.6146C14.3963 38.5843 14.2975 38.5727 14.1992 38.5806C12.6335 38.7062 11.3099 39.1404 10.1372 40.0647C8.98202 40.9765 8.03219 42.3204 7.12025 44.1598L4.70381 49.0336L3.4751 45.3885Z" fill="black" fill-opacity="0.3"/>
<path d="M23.3431 41.8154L20.211 42.4241C20.0916 42.4363 20.0245 42.4208 20.0098 42.3777C19.9915 42.2214 20.025 42.0337 20.1103 41.8147C20.1622 40.7058 20.5465 37.7966 21.2631 33.0871C20.9849 33.1482 20.8088 33.1849 20.7349 33.1971C20.7177 33.1848 20.7073 33.1676 20.7036 33.1454C20.6499 32.8204 20.6872 32.5638 20.8154 32.3756C20.9425 32.1801 21.0577 32.0738 21.1611 32.0567C21.2707 32.031 21.3624 32.0121 21.4363 31.9998L21.7677 29.9417C21.7438 29.4752 21.8365 29.1411 22.046 28.9395C22.1187 28.8744 22.4136 28.7991 22.9307 28.7137C23.4478 28.6282 24.5158 28.4783 26.1346 28.2638C26.3205 28.2407 26.4797 28.3775 26.6122 28.6743C26.6466 28.7446 26.6687 28.8092 26.6784 28.8683C26.7016 29.0086 26.5292 29.113 26.1611 29.1815C25.9912 29.2095 25.8176 29.2382 25.6403 29.2675C25.4618 29.2894 25.1916 29.3303 24.8296 29.3901C24.4677 29.4499 23.8533 29.5667 22.9866 29.7403L22.6902 31.804C23.4387 31.6955 24.2254 31.5882 25.0502 31.4823C25.2361 31.4591 25.3965 31.6034 25.5315 31.9149C25.5671 31.9925 25.5891 32.0572 25.5977 32.1089C25.5913 32.2541 25.4589 32.3481 25.2003 32.3908L24.0443 32.5591C23.5864 32.6348 23.0816 32.7258 22.53 32.8322L21.1672 41.1847C21.5895 41.1225 22.0634 41.0518 22.5891 40.9725C23.1148 40.8932 23.7266 40.8073 24.4247 40.7147C24.714 40.6744 24.8971 40.887 24.974 41.3524C24.9812 41.4878 24.8475 41.5744 24.573 41.6121C24.3071 41.6561 24.0633 41.6964 23.8417 41.733L23.3431 41.8154ZM27.4201 31.9784L27.5365 31.9251C27.6264 31.9178 27.6908 32.0323 27.7299 32.2687C27.769 32.5051 27.7449 33.0251 27.6576 33.8287C27.5704 34.6324 27.5536 35.1967 27.6073 35.5217C27.6598 35.8393 27.7265 36.1053 27.8075 36.3196C28.0095 36.1648 28.131 35.5907 28.1717 34.5975C28.2112 33.5969 28.2538 33.0283 28.2996 32.8917C28.3441 32.7477 28.3879 32.6684 28.431 32.6537C28.7781 32.5963 29.0377 32.7432 29.2095 33.0942C29.266 33.2063 29.3034 33.3177 29.3217 33.4285C29.4267 34.0638 29.3763 34.8841 29.1706 35.8894C28.9723 36.8935 28.7659 37.5499 28.5513 37.8585C28.3355 38.1598 28.2397 38.4071 28.2641 38.6003C28.3264 38.9771 28.5388 39.3442 28.9014 39.7016C29.2911 40.0849 29.4975 40.3468 29.5207 40.4871C29.4799 40.6532 29.3671 40.7515 29.1824 40.782C28.999 40.82 28.7862 40.7261 28.544 40.5005C28.3018 40.275 28.1285 40.1443 28.0239 40.1084C27.9181 40.0652 27.8098 40.0527 27.699 40.0711C27.3814 40.1236 27.0516 40.493 26.7097 41.1793L26.4135 41.7974C26.0456 42.6019 25.7495 43.1289 25.5251 43.3785C25.2946 43.6367 25.0827 43.7779 24.8894 43.8023C24.69 43.8352 24.5817 43.8228 24.5645 43.7649C24.5697 43.5667 24.85 42.8982 25.4055 41.7591C25.9547 40.6287 26.2812 39.9411 26.3849 39.6963C26.4875 39.4441 26.6041 39.1631 26.735 38.8531C26.8733 38.5418 26.9333 38.3081 26.9151 38.1517C26.8968 37.9954 26.8117 37.6642 26.6598 37.1581C26.514 36.6434 26.4155 36.2309 26.3642 35.9207C26.3117 35.603 26.2767 35.1383 26.259 34.5266L26.2237 33.3486C26.2056 33.1012 26.2015 32.9615 26.2114 32.9295C26.22 32.8901 26.2546 32.8465 26.3149 32.7985L27.4201 31.9784ZM31.9134 39.1924C32.9975 37.579 33.6952 35.9005 34.0065 34.1568C34.1256 33.4997 34.1707 32.8775 34.142 32.2904C33.9244 32.0759 33.6384 31.998 33.2838 32.0566C32.9292 32.1152 32.6884 32.2422 32.5614 32.4378L32.3757 34.5515C32.2056 36.5982 32.0514 38.1452 31.9134 39.1924ZM30.7528 46.84C30.4132 47.6322 29.9778 48.2809 29.4467 48.786C28.9093 49.2998 28.4523 49.5878 28.0755 49.6501C27.6914 49.7136 27.4866 49.6677 27.4609 49.5126C27.4499 49.4461 27.53 49.3798 27.7012 49.3135L27.7234 49.3099C28.2923 49.0792 28.7896 48.5987 29.2153 47.8681C29.3103 47.7082 29.3868 47.5514 29.4448 47.3976C30.1042 45.8316 30.5474 43.5539 30.7742 40.5645L31.1509 35.1296C31.3192 32.6127 31.4424 31.1771 31.5204 30.8227C31.5985 30.4683 31.7151 30.2555 31.8702 30.1844C31.9959 30.1181 32.1621 30.0678 32.3689 30.0336C32.5758 29.9995 32.7037 30.039 32.7528 30.1523C32.7663 30.188 32.7773 30.2318 32.7859 30.2835C32.7932 30.3278 32.7856 30.4656 32.7631 30.697C32.7407 30.9284 32.7355 31.081 32.7478 31.1549C32.834 31.1254 32.9694 31.0955 33.1541 31.0649C33.9592 30.9319 34.5375 31.0564 34.8891 31.4384C35.0292 31.5974 35.1175 31.7877 35.1541 32.0093C35.3324 33.0877 35.1613 34.4174 34.641 35.9984C34.1207 37.5793 33.5448 38.7786 32.9135 39.5963C32.5498 40.0586 32.2245 40.3172 31.9376 40.3722C31.717 43.3531 31.322 45.509 30.7528 46.84ZM37.8808 33.562C38.0249 33.5154 38.29 33.1453 38.6762 32.4516C39.0624 31.7579 39.2269 31.2375 39.1695 30.8903C39.1609 30.8386 39.1327 30.7826 39.0848 30.7222C38.9615 30.8944 38.7208 31.3667 38.3628 32.1392C38.0122 32.9104 37.8515 33.3847 37.8808 33.562ZM42.5636 34.4841C42.867 34.0242 43.0622 33.9198 43.1493 34.171C43.1652 34.2671 43.1323 34.4356 43.0507 34.6768C42.7999 35.4088 42.3637 36.2132 41.7421 37.0899C40.758 38.4819 39.8117 39.253 38.9031 39.4032C38.4747 39.474 38.0889 39.4125 37.7458 39.2188C37.1001 38.8474 36.682 38.0856 36.4915 36.9333C36.3829 36.2758 36.4297 35.3195 36.6321 34.0643C36.8406 32.8005 37.2822 31.6158 37.957 30.5102C38.2482 29.9764 38.5932 29.6765 38.9921 29.6106C39.1842 29.5789 39.3903 29.5865 39.6106 29.6336C40.1311 29.7525 40.428 30.0335 40.5012 30.4767C40.5122 30.5432 40.5077 30.654 40.4878 30.809C40.2839 31.4574 39.9105 32.2287 39.3677 33.1228C38.8249 34.0168 38.2448 34.754 37.6273 35.3341C37.5326 36.23 37.5249 36.918 37.6042 37.3982C37.6836 37.8783 37.7453 38.183 37.7895 38.3123C37.9072 38.6116 38.1803 38.7258 38.6087 38.655C39.0372 38.5842 39.4997 38.3067 39.9964 37.8224C40.4919 37.3307 41.0035 36.7074 41.5314 35.9523C42.0592 35.1973 42.357 34.7725 42.4249 34.6778C42.5001 34.5819 42.5463 34.5173 42.5636 34.4841ZM46.0472 30.6301L46.0489 30.7778L46.0487 30.9144C46.078 31.0917 45.9366 31.8436 45.6247 33.17C45.3053 34.4977 45.192 35.4194 45.2849 35.9353C45.4449 36.8119 45.7324 37.2197 46.1473 37.1587C46.5609 37.0903 47.0904 36.5286 47.7355 35.4734C48.5127 34.2066 48.962 33.2749 49.0834 32.6781C49.2061 32.0887 49.3265 31.7842 49.4447 31.7647C49.5419 31.7562 49.6107 31.851 49.6511 32.0493C49.6828 32.2413 49.6851 32.3927 49.6578 32.5035L49.5965 32.8209C49.4131 33.686 49.0543 34.6142 48.52 35.6055C47.7512 37.0606 46.9827 37.8516 46.2145 37.9785C45.9707 38.0188 45.7387 37.9927 45.5185 37.9C44.9637 37.6654 44.6137 37.1086 44.4684 36.2296C44.4208 35.9415 44.4104 35.4879 44.437 34.8688C44.4711 34.2485 44.4808 33.9168 44.4661 33.8737C44.4575 33.822 44.3819 33.7776 44.2392 33.7405C43.9537 33.6662 43.774 33.6808 43.7 33.7841C43.6432 33.8997 43.4464 34.7518 43.1094 36.3404C42.7799 37.9277 42.508 38.7391 42.2937 38.7745C42.2273 38.7855 42.0944 38.7619 41.895 38.7038C41.6883 38.6469 41.5722 38.5409 41.5465 38.3858C41.5416 38.3562 41.6004 38.115 41.7229 37.6623L42.0998 36.1544C42.3646 35.0937 42.649 33.6922 42.9529 31.9497L43.738 27.54C43.7579 27.4305 43.8669 27.3555 44.0651 27.3152L44.3514 27.2565C44.7059 27.1979 44.9046 27.2979 44.9473 27.5564C44.9681 27.682 44.8676 28.2677 44.6458 29.3137C44.4241 30.3596 44.3018 31.1576 44.2789 31.7078L44.3006 32.0457C44.3164 32.1417 44.3441 32.1941 44.3834 32.2027C44.4044 32.1917 44.4698 32.0139 44.5799 31.6694L44.7746 31.0567C44.8079 30.9829 44.8376 30.887 44.8636 30.7688C44.976 30.4391 45.1431 30.2559 45.3647 30.2193C45.75 30.1632 45.9757 30.2891 46.0417 30.5969L46.0472 30.6301ZM51.2613 26.4332C51.2219 26.4246 51.1198 26.3807 50.955 26.3017C50.7569 26.2054 50.653 26.1278 50.6433 26.0687C50.6103 25.8692 50.8098 25.3544 51.2417 24.5241C51.6736 23.6939 51.9143 23.1988 51.9638 23.0389C52.1179 22.8237 52.388 22.8739 52.7741 23.1895C53.0839 23.457 53.2067 23.6948 53.1424 23.9027C53.1224 24.1033 52.8756 24.5614 52.402 25.2772C51.9284 25.9929 51.5481 26.3782 51.2613 26.4332ZM55.0594 32.9539C54.9131 33.7673 54.4996 34.64 53.8189 35.5721C53.0149 36.6763 52.2878 37.2821 51.6378 37.3896C50.7588 37.5348 50.1261 37.1272 49.7396 36.1666C49.6231 35.8747 49.5355 35.5515 49.4769 35.1969C49.2803 34.0532 49.2791 32.6913 49.4733 31.1111C49.7123 29.1138 50.0793 28.0742 50.5742 27.9924C50.818 27.9521 51.005 27.9819 51.1353 28.0818C51.2718 28.173 51.3444 28.2445 51.3529 28.2962C51.392 28.5326 51.2483 29.1559 50.922 30.1659C50.5945 31.1686 50.4064 31.8903 50.3578 32.3309C50.3154 32.7628 50.3202 33.3198 50.3722 34.0018C50.4303 34.6751 50.4753 35.1078 50.507 35.2999C50.6145 35.9499 50.7592 36.3434 50.9411 36.4802C51.1305 36.6159 51.3403 36.6685 51.5705 36.638C52.2205 36.5306 52.9028 35.8373 53.6172 34.5582C53.9614 33.9322 54.217 33.3663 54.3838 32.8607C54.4653 32.6651 54.5652 32.5575 54.6834 32.538C54.8877 32.5346 55.015 32.616 55.0652 32.7822C55.0689 32.8044 55.067 32.8616 55.0594 32.9539ZM56.1631 30.5405C56.3072 30.4939 56.5723 30.1238 56.9585 29.4301C57.3447 28.7364 57.5091 28.216 57.4517 27.8688C57.4432 27.8171 57.415 27.7611 57.367 27.7007C57.2437 27.8728 57.0031 28.3452 56.6451 29.1176C56.2945 29.8889 56.1338 30.3632 56.1631 30.5405ZM60.8459 31.4626C61.1493 31.0027 61.3445 30.8983 61.4316 31.1495C61.4474 31.2455 61.4146 31.4141 61.333 31.6553C61.0822 32.3873 60.646 33.1917 60.0244 34.0684C59.0403 35.4604 58.094 36.2315 57.1854 36.3816C56.757 36.4524 56.3712 36.391 56.028 36.1973C55.3823 35.8259 54.9643 35.0641 54.7738 33.9117C54.6652 33.2543 54.712 32.298 54.9143 31.0428C55.1228 29.779 55.5645 28.5943 56.2393 27.4887C56.5305 26.9549 56.8755 26.655 57.2744 26.5891C57.4665 26.5574 57.6726 26.565 57.8929 26.6121C58.4134 26.731 58.7102 27.012 58.7835 27.4552C58.7945 27.5217 58.79 27.6325 58.7701 27.7875C58.5661 28.4359 58.1927 29.2071 57.65 30.1012C57.1072 30.9953 56.5271 31.7324 55.9096 32.3126C55.8148 33.2085 55.8071 33.8965 55.8865 34.3767C55.9658 34.8568 56.0276 35.1615 56.0717 35.2908C56.1895 35.5901 56.4626 35.7043 56.891 35.6335C57.3194 35.5627 57.782 35.2851 58.2787 34.8009C58.7742 34.3092 59.2858 33.6859 59.8136 32.9308C60.3415 32.1758 60.6393 31.7509 60.7071 31.6563C60.7823 31.5604 60.8286 31.4958 60.8459 31.4626ZM68.5859 29.8078C68.6469 30.1771 68.3382 30.9263 67.6597 32.0553C66.9812 33.1843 66.4576 33.9424 66.0891 34.3296C65.7267 34.7082 65.335 34.9323 64.9139 35.0019C64.1297 35.1239 63.6357 34.5681 63.4318 33.3345C63.3354 32.751 63.3028 31.8192 63.3341 30.5391C63.3641 29.2517 63.3774 28.5514 63.3738 28.4381C62.6336 28.8261 62.0462 29.9324 61.6117 31.7572C61.5238 32.1436 61.3893 32.7994 61.2084 33.7248C61.0336 34.6415 60.8931 35.1921 60.787 35.3766C60.6562 35.5955 60.4579 35.727 60.192 35.7709C59.926 35.8149 59.7735 35.7414 59.7344 35.5506C59.6758 35.196 60.3755 32.0601 61.8335 26.143C62.0587 25.2103 62.1924 24.6873 62.2344 24.5742C62.3197 24.3096 62.5837 24.2774 63.0266 24.4774C63.1582 24.5391 63.2307 24.6106 63.2442 24.6918C63.265 24.7719 63.2309 24.9103 63.142 25.1071C62.9395 25.5807 62.7782 26.1196 62.658 26.7238L62.4182 27.8903L62.7014 27.3996C62.9543 26.9556 63.1603 26.618 63.3194 26.3868C63.4773 26.1483 63.6172 26.0075 63.7391 25.9646C63.8671 25.9131 64.0014 25.8757 64.1417 25.8525C64.4482 25.8246 64.6339 25.9609 64.6987 26.2613C64.7231 26.4091 64.7044 26.617 64.6425 26.8853C64.3541 28.0333 64.2639 29.7139 64.3716 31.9271C64.4077 32.5586 64.4648 33.1107 64.5429 33.5834C64.6272 34.0476 64.7808 34.265 65.0036 34.2358C65.3139 34.1845 65.7996 33.611 66.4608 32.5152C67.1208 31.412 67.5793 30.5129 67.8363 29.8178C67.9067 29.6468 68.0299 29.543 68.2059 29.5063C68.3979 29.5201 68.5246 29.6206 68.5859 29.8078ZM70.1675 24.8453C71.113 24.689 71.6364 24.9174 71.7377 25.5305C71.7607 25.853 71.6169 26.5674 71.3065 27.6735C70.9948 28.7722 70.7245 29.3405 70.4955 29.3783C70.381 29.3745 70.3011 29.327 70.2557 29.2358C70.2459 29.1767 70.2713 29.1005 70.3317 29.007C70.3921 28.9135 70.4564 28.7512 70.5244 28.5198C70.742 27.8161 70.8141 27.2426 70.7409 26.7994C70.6676 26.3562 70.5536 26.0563 70.3987 25.8998C70.2005 25.9402 70.0014 26.1817 69.8014 26.6246C69.4445 27.45 69.1883 28.494 69.0327 29.7567C68.8846 31.0181 68.8684 31.9997 68.9844 32.7014C69.0076 32.8418 69.0296 32.952 69.0504 33.032C69.163 33.5294 69.415 33.7458 69.8065 33.6811C70.9884 33.4857 72.418 32.1947 74.0952 29.8079C74.4343 29.3344 74.6449 29.2086 74.7271 29.4302C74.7479 29.5558 74.7045 29.7527 74.5971 30.0209C74.3179 30.7196 73.8338 31.4864 73.1446 32.3212C72.1275 33.5593 71.1942 34.2485 70.3447 34.3889C69.7821 34.4743 69.2967 34.3383 68.8885 33.9808C68.4816 33.6306 68.1996 33.2561 68.0426 32.8571C67.6636 31.8953 67.6262 30.8656 67.9305 29.7681C67.9404 29.7361 67.988 29.5651 68.0734 29.255C68.5695 27.3897 69.0852 26.0334 69.6205 25.1861C69.7426 25.0065 69.9249 24.8929 70.1675 24.8453ZM75.8415 27.2882C75.9856 27.2416 76.2507 26.8715 76.6369 26.1778C77.0231 25.4842 77.1875 24.9637 77.1301 24.6166C77.1216 24.5648 77.0933 24.5088 77.0454 24.4484C76.9221 24.6206 76.6814 25.0929 76.3234 25.8654C75.9728 26.6367 75.8122 27.1109 75.8415 27.2882ZM80.5242 28.2103C80.8277 27.7504 81.0229 27.6461 81.1099 27.8973C81.1258 27.9933 81.093 28.1619 81.0114 28.403C80.7605 29.135 80.3243 29.9394 79.7028 30.8162C78.7187 32.2082 77.7723 32.9792 76.8638 33.1294C76.4353 33.2002 76.0495 33.1387 75.7064 32.945C75.0607 32.5737 74.6426 31.8118 74.4522 30.6595C74.3435 30.0021 74.3904 29.0458 74.5927 27.7906C74.8012 26.5268 75.2429 25.342 75.9176 24.2364C76.2088 23.7026 76.5539 23.4028 76.9528 23.3368C77.1448 23.3051 77.351 23.3128 77.5712 23.3598C78.0917 23.4787 78.3886 23.7597 78.4618 24.203C78.4728 24.2694 78.4684 24.3802 78.4485 24.5353C78.2445 25.1836 77.8711 25.9549 77.3283 26.849C76.7855 27.7431 76.2054 28.4802 75.588 29.0603C75.4932 29.9562 75.4855 30.6443 75.5649 31.1244C75.6442 31.6046 75.706 31.9093 75.7501 32.0386C75.8679 32.3378 76.1409 32.4521 76.5694 32.3812C76.9978 32.3104 77.4604 32.0329 77.9571 31.5486C78.4525 31.0569 78.9642 30.4336 79.492 29.6786C80.0198 28.9235 80.3177 28.4987 80.3855 28.404C80.4607 28.3081 80.507 28.2435 80.5242 28.2103ZM88.2316 22.0192L92.1948 21.2731C92.276 21.2597 92.3769 21.3189 92.4973 21.4508C92.6165 21.5752 92.7 21.7587 92.7477 22.0013C92.7671 22.165 92.5706 22.2848 92.1582 22.3605C90.9369 22.5927 89.4766 22.9858 87.7772 23.5399C87.7115 23.9226 87.5944 24.4769 87.426 25.2029C86.6856 28.391 86.4149 30.5871 86.6139 31.7912C86.7128 32.3895 86.9225 32.9467 87.2431 33.4629C87.7958 34.3277 88.4674 34.6948 89.2577 34.5642C89.8708 34.4628 90.358 34.2192 90.7191 33.8332C91.0889 33.4534 91.499 32.8582 91.9493 32.0477C92.0888 31.7894 92.26 31.6776 92.4631 31.7123C92.6612 31.7631 92.7797 31.9066 92.8188 32.143C92.9311 32.8226 92.633 33.4524 91.9245 34.0324C91.2172 34.6198 90.4129 34.9879 89.5117 35.1369C88.6179 35.2846 87.788 35.0841 87.0219 34.5353C86.2632 33.9853 85.7936 33.1637 85.6129 32.0704C85.492 31.3391 85.4549 30.5409 85.5017 29.6757C85.5484 28.8104 85.713 27.717 85.9954 26.3955C86.2766 25.0666 86.4569 24.183 86.5363 23.745C85.0072 23.9977 84.151 24.1202 83.9676 24.1126C83.4014 24.0847 83.086 23.8978 83.0212 23.5519C83.0103 23.4398 83.0836 23.3556 83.2412 23.2992L86.7929 22.4049L88.5048 18.0242C88.7024 17.521 88.912 17.2511 89.1336 17.2145C89.2223 17.1999 89.3281 17.1975 89.4512 17.2076C89.9029 17.2316 90.147 17.3544 90.1837 17.576C90.2191 17.7902 90.0524 18.1592 89.6837 18.6831C89.3149 19.2069 89.0892 19.5402 89.0066 19.6828C88.7302 20.1686 88.4719 20.9474 88.2316 22.0192ZM93.3793 23.2059C93.3855 23.1973 93.4977 23.0042 93.7161 22.6266C93.9357 22.2565 94.0911 22.0031 94.1824 21.8666L94.3563 21.6102C94.4808 21.4455 94.6915 21.3423 94.9881 21.3009C95.2836 21.2521 95.4632 21.3742 95.5268 21.6672C95.5402 21.7485 95.5184 21.938 95.4614 22.2358C95.4043 22.5336 95.3507 23.0812 95.3004 23.8787C95.1648 25.8134 95.1922 27.357 95.3827 28.5093C95.4596 28.9747 95.5658 29.2038 95.7012 29.1966C95.9302 29.1587 96.2365 28.8083 96.6202 28.1454C96.9693 27.5489 97.4573 26.2314 98.0841 24.1927C98.1842 23.9257 98.3265 23.777 98.5112 23.7465C98.6109 23.7528 98.6797 23.8249 98.7177 23.9628C98.7787 24.3321 98.7511 24.7844 98.6346 25.3197C98.4178 26.3496 97.9992 27.3522 97.3788 28.3274C96.7657 29.3014 96.2154 29.8287 95.7279 29.9093C95.0101 30.0203 94.5474 29.4935 94.3398 28.3288C94.1811 27.3685 94.1147 25.9794 94.1405 24.1615C93.6934 24.3947 93.3303 24.838 93.0512 25.4912C92.7796 26.1432 92.5371 27.0635 92.3238 28.2522C92.1018 29.4803 91.9254 30.181 91.7947 30.3544C91.6394 30.5167 91.454 30.6118 91.2386 30.6398C91.017 30.6765 90.8897 30.6178 90.8566 30.4639C90.8236 30.31 91.0215 29.1428 91.4504 26.9623C91.8792 24.7818 92.3968 22.5184 93.0031 20.172C93.6168 17.8243 93.9376 16.2991 93.9657 15.5964C93.9832 15.381 94.1576 15.2421 94.4887 15.1798C94.5995 15.1615 94.7128 15.158 94.8285 15.1692C95.1521 15.1992 95.3311 15.3176 95.3653 15.5244C95.3775 15.5983 95.3687 15.6832 95.3391 15.7792L95.2279 16.0707C94.8313 17.1607 94.2151 19.5391 93.3793 23.2059ZM99.3314 23.406C99.4755 23.3594 99.7406 22.9893 100.127 22.2956C100.513 21.602 100.677 21.0815 100.62 20.7344C100.612 20.6827 100.583 20.6266 100.535 20.5662C100.412 20.7384 100.171 21.2107 99.8134 21.9832C99.4628 22.7545 99.3021 23.2287 99.3314 23.406ZM104.014 24.3281C104.318 23.8682 104.513 23.7639 104.6 24.0151C104.616 24.1111 104.583 24.2797 104.501 24.5208C104.25 25.2528 103.814 26.0572 103.193 26.934C102.209 28.326 101.262 29.097 100.354 29.2472C99.9253 29.318 99.5395 29.2565 99.1963 29.0628C98.5507 28.6915 98.1326 27.9296 97.9421 26.7773C97.8335 26.1199 97.8803 25.1636 98.0827 23.9084C98.2912 22.6446 98.7328 21.4598 99.4076 20.3542C99.6988 19.8204 100.044 19.5206 100.443 19.4546C100.635 19.4229 100.841 19.4306 101.061 19.4776C101.582 19.5965 101.879 19.8776 101.952 20.3208C101.963 20.3872 101.958 20.498 101.938 20.6531C101.734 21.3015 101.361 22.0727 100.818 22.9668C100.275 23.8609 99.6954 24.598 99.0779 25.1781C98.9832 26.074 98.9755 26.7621 99.0548 27.2422C99.1342 27.7224 99.1959 28.0271 99.24 28.1564C99.3578 28.4556 99.6309 28.5699 100.059 28.4991C100.488 28.4282 100.95 28.1507 101.447 27.6664C101.942 27.1747 102.454 26.5514 102.982 25.7964C103.51 25.0413 103.808 24.6165 103.875 24.5218C103.951 24.4259 103.997 24.3613 104.014 24.3281ZM109.171 28.0517C108.711 28.1126 108.65 27.9482 108.987 27.5585C109.045 27.4958 109.086 27.4436 109.109 27.4017C109.63 26.739 109.963 26.1376 110.109 25.5974C110.166 25.3452 110.595 22.2465 111.395 16.3013L111.405 16.2884L111.401 16.2662C111.41 16.1813 111.425 15.9776 111.448 15.6552C111.509 14.3703 111.619 13.5894 111.778 13.3127C111.945 13.0348 112.102 12.8836 112.249 12.8592C112.609 12.8301 112.819 12.9055 112.879 13.0853C112.885 13.1222 112.875 13.2717 112.85 13.5339C112.597 15.5337 112.552 17.0322 112.717 18.0294C112.739 18.1623 112.819 18.2818 112.958 18.3879C113.097 18.4939 113.178 18.5451 113.2 18.5415C113.397 18.4937 113.665 17.774 114.004 16.3824C114.349 14.9822 114.572 14.1258 114.672 13.8133C114.771 13.4934 114.872 13.3249 114.976 13.3078C115.271 13.259 115.474 13.271 115.585 13.3437C115.702 13.4079 115.763 13.4584 115.769 13.4954C115.782 13.5237 115.744 13.7575 115.658 14.1968C115.57 14.6287 115.326 16.346 114.927 19.3488C114.534 22.3429 114.309 24.3114 114.252 25.2541C114.203 26.1956 114.214 26.8843 114.287 27.3201C114.317 27.4593 114.455 27.5844 114.701 27.6955C114.997 27.8288 115.153 27.9737 115.172 28.13C115.244 28.6114 115.14 28.879 114.86 28.9327C114.165 29.0401 113.71 28.4474 113.497 27.1548C113.324 26.1132 113.338 24.7944 113.537 23.1982C113.772 21.3153 113.88 20.3148 113.86 20.1966C113.801 20.4796 113.679 20.7275 113.494 20.9402C113.316 21.1516 113.15 21.2702 112.995 21.2958C112.847 21.3202 112.653 21.2271 112.414 21.0163C112.181 20.8042 112.049 20.6213 112.016 20.4674C111.983 20.3135 111.966 20.21 111.964 20.1571C111.873 20.4758 111.746 21.4074 111.584 22.9519C111.422 24.4964 111.181 25.6555 110.861 26.4293C110.466 27.39 109.903 27.9308 109.171 28.0517ZM122.488 27.0119C122.565 27.4773 122.441 27.7368 122.116 27.7905C121.939 27.8198 121.77 27.787 121.61 27.692C121.23 27.4588 120.99 27.0357 120.888 26.4226C120.788 25.8169 120.726 25.1897 120.702 24.541C120.686 23.8911 120.754 22.696 120.907 20.9558C120.241 21.1494 119.731 21.2828 119.379 21.3562C118.531 23.5226 117.603 25.4365 116.595 27.098C116.513 27.2025 116.383 27.2658 116.205 27.2877C116.02 27.3182 115.911 27.2756 115.876 27.1598C115.856 27.0343 115.926 26.795 116.088 26.4419C116.25 26.0889 116.345 25.8872 116.375 25.8367L118.205 21.5503C117.073 21.7297 116.369 21.7854 116.092 21.7173C115.816 21.6492 115.657 21.4933 115.617 21.2495C115.598 21.1387 115.668 21.0551 115.826 20.9987C117.018 20.6803 117.993 20.4281 118.751 20.242L120.545 15.734L120.75 12.5698C120.765 12.2941 120.887 12.1373 121.116 12.0995C121.344 12.0542 121.546 12.036 121.722 12.0449C122.259 12.0776 122.556 12.2713 122.615 12.6258C122.623 12.6776 122.595 13.2665 122.531 14.3926C122.467 15.5188 122.318 17.2128 122.085 19.4748C122.693 19.3439 123.503 19.1949 124.515 19.0276C124.59 19.0228 124.687 19.0826 124.807 19.2071C124.925 19.3242 125.006 19.4966 125.051 19.7244C125.07 19.8808 124.778 20.0201 124.176 20.1423C123.572 20.2572 122.838 20.4279 121.972 20.6544C121.684 23.8666 121.577 25.6979 121.651 26.1485C121.685 26.2643 121.827 26.4079 122.075 26.5793C122.317 26.7138 122.455 26.858 122.488 27.0119ZM120.045 19.5274L119.891 19.974L121.008 19.7097C121.045 19.0586 121.058 18.4949 121.047 18.0185C120.992 17.8228 120.838 17.9469 120.585 18.3909C120.338 18.8263 120.158 19.2051 120.045 19.5274ZM128.242 14.1659C128.124 14.1854 128.016 14.1274 127.917 13.9919C127.84 13.5265 127.726 13.1774 127.573 12.9446C127.428 12.7105 127.315 12.5965 127.232 12.6026C126.641 12.7002 126.19 13.9434 125.879 16.3321C125.638 18.178 125.543 19.9657 125.593 21.6951C125.608 22.1481 125.637 22.5075 125.681 22.7735C125.724 23.0394 125.803 23.1706 125.916 23.1671C126.289 23.0826 126.666 22.3982 127.045 21.1137C127.425 19.8292 127.64 18.606 127.691 17.4441C127.701 17.1389 127.693 16.8823 127.666 16.6742C127.563 16.6913 127.479 16.69 127.415 16.6702C127.199 16.5997 127.065 16.4549 127.013 16.2358C127.011 16.1299 127.042 16.0641 127.106 16.0383C129.034 15.4465 130.449 15.076 131.35 14.9271C131.471 14.9679 131.573 15.152 131.658 15.4796C131.671 15.6064 131.582 15.6893 131.391 15.7284C130.922 15.8287 130.462 15.958 130.01 16.1161C129.558 16.2743 129.307 16.3613 129.256 16.3773C129.2 17.1379 129.175 17.5631 129.183 17.653C129.19 17.7428 129.188 17.9176 129.178 18.1773C129 24.3079 128.338 28.5418 127.191 30.8788C126.798 31.6722 126.333 32.2993 125.794 32.7602C125.256 33.221 124.817 33.4795 124.477 33.5356C124.034 33.6089 123.798 33.5606 123.77 33.3907C123.761 33.339 123.807 33.2935 123.907 33.2542C123.999 33.2162 124.045 33.1935 124.044 33.1861C124.598 33.0035 125.103 32.5709 125.559 31.8884C125.674 31.7101 125.771 31.5385 125.85 31.3737C126.805 29.4401 127.529 26.4292 128.022 22.3409C128.088 21.8216 128.131 21.4161 128.151 21.1244C127.596 23.5989 126.846 24.9143 125.901 25.0705C125.162 25.1926 124.713 24.7698 124.553 23.8022C124.393 22.8345 124.447 21.0954 124.715 18.5848C124.982 16.0668 125.302 14.1244 125.676 12.7574C125.823 12.2246 125.964 11.8408 126.1 11.6059C126.242 11.3624 126.471 11.2107 126.787 11.1508C127.474 11.0373 127.953 11.4552 128.224 12.4045C128.295 12.6508 128.36 12.9968 128.418 13.4424C128.477 13.8881 128.418 14.1292 128.242 14.1659ZM132.819 11.2125C132.83 11.0969 132.837 10.9098 132.84 10.6513C132.85 10.3916 132.904 10.2083 133 10.1013C133.096 9.99437 133.289 9.92078 133.578 9.88056C133.875 9.83911 134.034 9.88487 134.056 10.0178C134.085 10.1496 133.96 11.9649 133.681 15.4638C133.409 18.9616 133.207 21.2033 133.074 22.189C132.948 23.1735 132.803 23.8995 132.637 24.367C132.471 24.8345 132.215 25.2791 131.867 25.7008C131.527 26.1213 131.267 26.3425 131.089 26.3644C130.91 26.3864 130.812 26.3647 130.794 26.2994C130.783 26.2329 130.81 26.1259 130.877 25.9783C131.513 24.5452 131.941 22.4521 132.161 19.699L132.819 11.2125ZM138.913 16.1245C138.713 16.1575 138.599 16.089 138.571 15.9191C138.565 15.8367 138.613 15.7112 138.714 15.5427C138.821 15.3656 138.956 15.0094 139.118 14.4742C139.47 13.3005 139.592 12.3849 139.484 11.7275C139.464 11.6093 139.409 11.4855 139.32 11.3561C139.121 11.0703 138.91 10.9457 138.689 10.9823C137.945 11.1204 137.302 13.2908 136.76 17.4934C136.609 18.6034 136.618 19.6644 136.785 20.6764C136.833 20.9645 136.944 21.2496 137.12 21.5317C137.469 22.0811 137.894 22.3143 138.397 22.2313C139.276 22.0861 140.115 21.5832 140.913 20.7226C141.197 20.4178 141.612 19.9432 142.158 19.299C142.704 18.6548 143.007 18.3278 143.066 18.318C143.096 18.3205 143.124 18.3501 143.149 18.4068C143.23 18.9472 142.735 19.8789 141.664 21.2019C140.765 22.2838 139.777 22.9139 138.698 23.0921C137.937 23.2178 137.308 23.1284 136.81 22.8237C136.142 22.4104 135.693 21.5095 135.464 20.1207C135.234 18.732 135.311 17.0612 135.694 15.1084C136.076 13.1482 136.748 11.5422 137.709 10.2905C137.93 10.0188 138.176 9.85665 138.449 9.80409C139.763 9.58679 140.491 9.90287 140.631 10.7524C140.707 11.2103 140.508 12.2107 140.035 13.7536C139.567 15.2878 139.193 16.0781 138.913 16.1245Z" fill="url(#paint1_linear_271_110)"/>
<path d="M23.3431 41.8154L20.211 42.4241C20.0916 42.4363 20.0245 42.4208 20.0098 42.3777C19.9915 42.2214 20.025 42.0337 20.1103 41.8147C20.1622 40.7058 20.5465 37.7966 21.2631 33.0871C20.9849 33.1482 20.8088 33.1849 20.7349 33.1971C20.7177 33.1848 20.7073 33.1676 20.7036 33.1454C20.6499 32.8204 20.6872 32.5638 20.8154 32.3756C20.9425 32.1801 21.0577 32.0738 21.1611 32.0567C21.2707 32.031 21.3624 32.0121 21.4363 31.9998L21.7677 29.9417C21.7438 29.4752 21.8365 29.1411 22.046 28.9395C22.1187 28.8744 22.4136 28.7991 22.9307 28.7137C23.4478 28.6282 24.5158 28.4783 26.1346 28.2638C26.3205 28.2407 26.4797 28.3775 26.6122 28.6743C26.6466 28.7446 26.6687 28.8092 26.6784 28.8683C26.7016 29.0086 26.5292 29.113 26.1611 29.1815C25.9912 29.2095 25.8176 29.2382 25.6403 29.2675C25.4618 29.2894 25.1916 29.3303 24.8296 29.3901C24.4677 29.4499 23.8533 29.5667 22.9866 29.7403L22.6902 31.804C23.4387 31.6955 24.2254 31.5882 25.0502 31.4823C25.2361 31.4591 25.3965 31.6034 25.5315 31.9149C25.5671 31.9925 25.5891 32.0572 25.5977 32.1089C25.5913 32.2541 25.4589 32.3481 25.2003 32.3908L24.0443 32.5591C23.5864 32.6348 23.0816 32.7258 22.53 32.8322L21.1672 41.1847C21.5895 41.1225 22.0634 41.0518 22.5891 40.9725C23.1148 40.8932 23.7266 40.8073 24.4247 40.7147C24.714 40.6744 24.8971 40.887 24.974 41.3524C24.9812 41.4878 24.8475 41.5744 24.573 41.6121C24.3071 41.6561 24.0633 41.6964 23.8417 41.733L23.3431 41.8154ZM27.4201 31.9784L27.5365 31.9251C27.6264 31.9178 27.6908 32.0323 27.7299 32.2687C27.769 32.5051 27.7449 33.0251 27.6576 33.8287C27.5704 34.6324 27.5536 35.1967 27.6073 35.5217C27.6598 35.8393 27.7265 36.1053 27.8075 36.3196C28.0095 36.1648 28.131 35.5907 28.1717 34.5975C28.2112 33.5969 28.2538 33.0283 28.2996 32.8917C28.3441 32.7477 28.3879 32.6684 28.431 32.6537C28.7781 32.5963 29.0377 32.7432 29.2095 33.0942C29.266 33.2063 29.3034 33.3177 29.3217 33.4285C29.4267 34.0638 29.3763 34.8841 29.1706 35.8894C28.9723 36.8935 28.7659 37.5499 28.5513 37.8585C28.3355 38.1598 28.2397 38.4071 28.2641 38.6003C28.3264 38.9771 28.5388 39.3442 28.9014 39.7016C29.2911 40.0849 29.4975 40.3468 29.5207 40.4871C29.4799 40.6532 29.3671 40.7515 29.1824 40.782C28.999 40.82 28.7862 40.7261 28.544 40.5005C28.3018 40.275 28.1285 40.1443 28.0239 40.1084C27.9181 40.0652 27.8098 40.0527 27.699 40.0711C27.3814 40.1236 27.0516 40.493 26.7097 41.1793L26.4135 41.7974C26.0456 42.6019 25.7495 43.1289 25.5251 43.3785C25.2946 43.6367 25.0827 43.7779 24.8894 43.8023C24.69 43.8352 24.5817 43.8228 24.5645 43.7649C24.5697 43.5667 24.85 42.8982 25.4055 41.7591C25.9547 40.6287 26.2812 39.9411 26.3849 39.6963C26.4875 39.4441 26.6041 39.1631 26.735 38.8531C26.8733 38.5418 26.9333 38.3081 26.9151 38.1517C26.8968 37.9954 26.8117 37.6642 26.6598 37.1581C26.514 36.6434 26.4155 36.2309 26.3642 35.9207C26.3117 35.603 26.2767 35.1383 26.259 34.5266L26.2237 33.3486C26.2056 33.1012 26.2015 32.9615 26.2114 32.9295C26.22 32.8901 26.2546 32.8465 26.3149 32.7985L27.4201 31.9784ZM31.9134 39.1924C32.9975 37.579 33.6952 35.9005 34.0065 34.1568C34.1256 33.4997 34.1707 32.8775 34.142 32.2904C33.9244 32.0759 33.6384 31.998 33.2838 32.0566C32.9292 32.1152 32.6884 32.2422 32.5614 32.4378L32.3757 34.5515C32.2056 36.5982 32.0514 38.1452 31.9134 39.1924ZM30.7528 46.84C30.4132 47.6322 29.9778 48.2809 29.4467 48.786C28.9093 49.2998 28.4523 49.5878 28.0755 49.6501C27.6914 49.7136 27.4866 49.6677 27.4609 49.5126C27.4499 49.4461 27.53 49.3798 27.7012 49.3135L27.7234 49.3099C28.2923 49.0792 28.7896 48.5987 29.2153 47.8681C29.3103 47.7082 29.3868 47.5514 29.4448 47.3976C30.1042 45.8316 30.5474 43.5539 30.7742 40.5645L31.1509 35.1296C31.3192 32.6127 31.4424 31.1771 31.5204 30.8227C31.5985 30.4683 31.7151 30.2555 31.8702 30.1844C31.9959 30.1181 32.1621 30.0678 32.3689 30.0336C32.5758 29.9995 32.7037 30.039 32.7528 30.1523C32.7663 30.188 32.7773 30.2318 32.7859 30.2835C32.7932 30.3278 32.7856 30.4656 32.7631 30.697C32.7407 30.9284 32.7355 31.081 32.7478 31.1549C32.834 31.1254 32.9694 31.0955 33.1541 31.0649C33.9592 30.9319 34.5375 31.0564 34.8891 31.4384C35.0292 31.5974 35.1175 31.7877 35.1541 32.0093C35.3324 33.0877 35.1613 34.4174 34.641 35.9984C34.1207 37.5793 33.5448 38.7786 32.9135 39.5963C32.5498 40.0586 32.2245 40.3172 31.9376 40.3722C31.717 43.3531 31.322 45.509 30.7528 46.84ZM37.8808 33.562C38.0249 33.5154 38.29 33.1453 38.6762 32.4516C39.0624 31.7579 39.2269 31.2375 39.1695 30.8903C39.1609 30.8386 39.1327 30.7826 39.0848 30.7222C38.9615 30.8944 38.7208 31.3667 38.3628 32.1392C38.0122 32.9104 37.8515 33.3847 37.8808 33.562ZM42.5636 34.4841C42.867 34.0242 43.0622 33.9198 43.1493 34.171C43.1652 34.2671 43.1323 34.4356 43.0507 34.6768C42.7999 35.4088 42.3637 36.2132 41.7421 37.0899C40.758 38.4819 39.8117 39.253 38.9031 39.4032C38.4747 39.474 38.0889 39.4125 37.7458 39.2188C37.1001 38.8474 36.682 38.0856 36.4915 36.9333C36.3829 36.2758 36.4297 35.3195 36.6321 34.0643C36.8406 32.8005 37.2822 31.6158 37.957 30.5102C38.2482 29.9764 38.5932 29.6765 38.9921 29.6106C39.1842 29.5789 39.3903 29.5865 39.6106 29.6336C40.1311 29.7525 40.428 30.0335 40.5012 30.4767C40.5122 30.5432 40.5077 30.654 40.4878 30.809C40.2839 31.4574 39.9105 32.2287 39.3677 33.1228C38.8249 34.0168 38.2448 34.754 37.6273 35.3341C37.5326 36.23 37.5249 36.918 37.6042 37.3982C37.6836 37.8783 37.7453 38.183 37.7895 38.3123C37.9072 38.6116 38.1803 38.7258 38.6087 38.655C39.0372 38.5842 39.4997 38.3067 39.9964 37.8224C40.4919 37.3307 41.0035 36.7074 41.5314 35.9523C42.0592 35.1973 42.357 34.7725 42.4249 34.6778C42.5001 34.5819 42.5463 34.5173 42.5636 34.4841ZM46.0472 30.6301L46.0489 30.7778L46.0487 30.9144C46.078 31.0917 45.9366 31.8436 45.6247 33.17C45.3053 34.4977 45.192 35.4194 45.2849 35.9353C45.4449 36.8119 45.7324 37.2197 46.1473 37.1587C46.5609 37.0903 47.0904 36.5286 47.7355 35.4734C48.5127 34.2066 48.962 33.2749 49.0834 32.6781C49.2061 32.0887 49.3265 31.7842 49.4447 31.7647C49.5419 31.7562 49.6107 31.851 49.6511 32.0493C49.6828 32.2413 49.6851 32.3927 49.6578 32.5035L49.5965 32.8209C49.4131 33.686 49.0543 34.6142 48.52 35.6055C47.7512 37.0606 46.9827 37.8516 46.2145 37.9785C45.9707 38.0188 45.7387 37.9927 45.5185 37.9C44.9637 37.6654 44.6137 37.1086 44.4684 36.2296C44.4208 35.9415 44.4104 35.4879 44.437 34.8688C44.4711 34.2485 44.4808 33.9168 44.4661 33.8737C44.4575 33.822 44.3819 33.7776 44.2392 33.7405C43.9537 33.6662 43.774 33.6808 43.7 33.7841C43.6432 33.8997 43.4464 34.7518 43.1094 36.3404C42.7799 37.9277 42.508 38.7391 42.2937 38.7745C42.2273 38.7855 42.0944 38.7619 41.895 38.7038C41.6883 38.6469 41.5722 38.5409 41.5465 38.3858C41.5416 38.3562 41.6004 38.115 41.7229 37.6623L42.0998 36.1544C42.3646 35.0937 42.649 33.6922 42.9529 31.9497L43.738 27.54C43.7579 27.4305 43.8669 27.3555 44.0651 27.3152L44.3514 27.2565C44.7059 27.1979 44.9046 27.2979 44.9473 27.5564C44.9681 27.682 44.8676 28.2677 44.6458 29.3137C44.4241 30.3596 44.3018 31.1576 44.2789 31.7078L44.3006 32.0457C44.3164 32.1417 44.3441 32.1941 44.3834 32.2027C44.4044 32.1917 44.4698 32.0139 44.5799 31.6694L44.7746 31.0567C44.8079 30.9829 44.8376 30.887 44.8636 30.7688C44.976 30.4391 45.1431 30.2559 45.3647 30.2193C45.75 30.1632 45.9757 30.2891 46.0417 30.5969L46.0472 30.6301ZM51.2613 26.4332C51.2219 26.4246 51.1198 26.3807 50.955 26.3017C50.7569 26.2054 50.653 26.1278 50.6433 26.0687C50.6103 25.8692 50.8098 25.3544 51.2417 24.5241C51.6736 23.6939 51.9143 23.1988 51.9638 23.0389C52.1179 22.8237 52.388 22.8739 52.7741 23.1895C53.0839 23.457 53.2067 23.6948 53.1424 23.9027C53.1224 24.1033 52.8756 24.5614 52.402 25.2772C51.9284 25.9929 51.5481 26.3782 51.2613 26.4332ZM55.0594 32.9539C54.9131 33.7673 54.4996 34.64 53.8189 35.5721C53.0149 36.6763 52.2878 37.2821 51.6378 37.3896C50.7588 37.5348 50.1261 37.1272 49.7396 36.1666C49.6231 35.8747 49.5355 35.5515 49.4769 35.1969C49.2803 34.0532 49.2791 32.6913 49.4733 31.1111C49.7123 29.1138 50.0793 28.0742 50.5742 27.9924C50.818 27.9521 51.005 27.9819 51.1353 28.0818C51.2718 28.173 51.3444 28.2445 51.3529 28.2962C51.392 28.5326 51.2483 29.1559 50.922 30.1659C50.5945 31.1686 50.4064 31.8903 50.3578 32.3309C50.3154 32.7628 50.3202 33.3198 50.3722 34.0018C50.4303 34.6751 50.4753 35.1078 50.507 35.2999C50.6145 35.9499 50.7592 36.3434 50.9411 36.4802C51.1305 36.6159 51.3403 36.6685 51.5705 36.638C52.2205 36.5306 52.9028 35.8373 53.6172 34.5582C53.9614 33.9322 54.217 33.3663 54.3838 32.8607C54.4653 32.6651 54.5652 32.5575 54.6834 32.538C54.8877 32.5346 55.015 32.616 55.0652 32.7822C55.0689 32.8044 55.067 32.8616 55.0594 32.9539ZM56.1631 30.5405C56.3072 30.4939 56.5723 30.1238 56.9585 29.4301C57.3447 28.7364 57.5091 28.216 57.4517 27.8688C57.4432 27.8171 57.415 27.7611 57.367 27.7007C57.2437 27.8728 57.0031 28.3452 56.6451 29.1176C56.2945 29.8889 56.1338 30.3632 56.1631 30.5405ZM60.8459 31.4626C61.1493 31.0027 61.3445 30.8983 61.4316 31.1495C61.4474 31.2455 61.4146 31.4141 61.333 31.6553C61.0822 32.3873 60.646 33.1917 60.0244 34.0684C59.0403 35.4604 58.094 36.2315 57.1854 36.3816C56.757 36.4524 56.3712 36.391 56.028 36.1973C55.3823 35.8259 54.9643 35.0641 54.7738 33.9117C54.6652 33.2543 54.712 32.298 54.9143 31.0428C55.1228 29.779 55.5645 28.5943 56.2393 27.4887C56.5305 26.9549 56.8755 26.655 57.2744 26.5891C57.4665 26.5574 57.6726 26.565 57.8929 26.6121C58.4134 26.731 58.7102 27.012 58.7835 27.4552C58.7945 27.5217 58.79 27.6325 58.7701 27.7875C58.5661 28.4359 58.1927 29.2071 57.65 30.1012C57.1072 30.9953 56.5271 31.7324 55.9096 32.3126C55.8148 33.2085 55.8071 33.8965 55.8865 34.3767C55.9658 34.8568 56.0276 35.1615 56.0717 35.2908C56.1895 35.5901 56.4626 35.7043 56.891 35.6335C57.3194 35.5627 57.782 35.2851 58.2787 34.8009C58.7742 34.3092 59.2858 33.6859 59.8136 32.9308C60.3415 32.1758 60.6393 31.7509 60.7071 31.6563C60.7823 31.5604 60.8286 31.4958 60.8459 31.4626ZM68.5859 29.8078C68.6469 30.1771 68.3382 30.9263 67.6597 32.0553C66.9812 33.1843 66.4576 33.9424 66.0891 34.3296C65.7267 34.7082 65.335 34.9323 64.9139 35.0019C64.1297 35.1239 63.6357 34.5681 63.4318 33.3345C63.3354 32.751 63.3028 31.8192 63.3341 30.5391C63.3641 29.2517 63.3774 28.5514 63.3738 28.4381C62.6336 28.8261 62.0462 29.9324 61.6117 31.7572C61.5238 32.1436 61.3893 32.7994 61.2084 33.7248C61.0336 34.6415 60.8931 35.1921 60.787 35.3766C60.6562 35.5955 60.4579 35.727 60.192 35.7709C59.926 35.8149 59.7735 35.7414 59.7344 35.5506C59.6758 35.196 60.3755 32.0601 61.8335 26.143C62.0587 25.2103 62.1924 24.6873 62.2344 24.5742C62.3197 24.3096 62.5837 24.2774 63.0266 24.4774C63.1582 24.5391 63.2307 24.6106 63.2442 24.6918C63.265 24.7719 63.2309 24.9103 63.142 25.1071C62.9395 25.5807 62.7782 26.1196 62.658 26.7238L62.4182 27.8903L62.7014 27.3996C62.9543 26.9556 63.1603 26.618 63.3194 26.3868C63.4773 26.1483 63.6172 26.0075 63.7391 25.9646C63.8671 25.9131 64.0014 25.8757 64.1417 25.8525C64.4482 25.8246 64.6339 25.9609 64.6987 26.2613C64.7231 26.4091 64.7044 26.617 64.6425 26.8853C64.3541 28.0333 64.2639 29.7139 64.3716 31.9271C64.4077 32.5586 64.4648 33.1107 64.5429 33.5834C64.6272 34.0476 64.7808 34.265 65.0036 34.2358C65.3139 34.1845 65.7996 33.611 66.4608 32.5152C67.1208 31.412 67.5793 30.5129 67.8363 29.8178C67.9067 29.6468 68.0299 29.543 68.2059 29.5063C68.3979 29.5201 68.5246 29.6206 68.5859 29.8078ZM70.1675 24.8453C71.113 24.689 71.6364 24.9174 71.7377 25.5305C71.7607 25.853 71.6169 26.5674 71.3065 27.6735C70.9948 28.7722 70.7245 29.3405 70.4955 29.3783C70.381 29.3745 70.3011 29.327 70.2557 29.2358C70.2459 29.1767 70.2713 29.1005 70.3317 29.007C70.3921 28.9135 70.4564 28.7512 70.5244 28.5198C70.742 27.8161 70.8141 27.2426 70.7409 26.7994C70.6676 26.3562 70.5536 26.0563 70.3987 25.8998C70.2005 25.9402 70.0014 26.1817 69.8014 26.6246C69.4445 27.45 69.1883 28.494 69.0327 29.7567C68.8846 31.0181 68.8684 31.9997 68.9844 32.7014C69.0076 32.8418 69.0296 32.952 69.0504 33.032C69.163 33.5294 69.415 33.7458 69.8065 33.6811C70.9884 33.4857 72.418 32.1947 74.0952 29.8079C74.4343 29.3344 74.6449 29.2086 74.7271 29.4302C74.7479 29.5558 74.7045 29.7527 74.5971 30.0209C74.3179 30.7196 73.8338 31.4864 73.1446 32.3212C72.1275 33.5593 71.1942 34.2485 70.3447 34.3889C69.7821 34.4743 69.2967 34.3383 68.8885 33.9808C68.4816 33.6306 68.1996 33.2561 68.0426 32.8571C67.6636 31.8953 67.6262 30.8656 67.9305 29.7681C67.9404 29.7361 67.988 29.5651 68.0734 29.255C68.5695 27.3897 69.0852 26.0334 69.6205 25.1861C69.7426 25.0065 69.9249 24.8929 70.1675 24.8453ZM75.8415 27.2882C75.9856 27.2416 76.2507 26.8715 76.6369 26.1778C77.0231 25.4842 77.1875 24.9637 77.1301 24.6166C77.1216 24.5648 77.0933 24.5088 77.0454 24.4484C76.9221 24.6206 76.6814 25.0929 76.3234 25.8654C75.9728 26.6367 75.8122 27.1109 75.8415 27.2882ZM80.5242 28.2103C80.8277 27.7504 81.0229 27.6461 81.1099 27.8973C81.1258 27.9933 81.093 28.1619 81.0114 28.403C80.7605 29.135 80.3243 29.9394 79.7028 30.8162C78.7187 32.2082 77.7723 32.9792 76.8638 33.1294C76.4353 33.2002 76.0495 33.1387 75.7064 32.945C75.0607 32.5737 74.6426 31.8118 74.4522 30.6595C74.3435 30.0021 74.3904 29.0458 74.5927 27.7906C74.8012 26.5268 75.2429 25.342 75.9176 24.2364C76.2088 23.7026 76.5539 23.4028 76.9528 23.3368C77.1448 23.3051 77.351 23.3128 77.5712 23.3598C78.0917 23.4787 78.3886 23.7597 78.4618 24.203C78.4728 24.2694 78.4684 24.3802 78.4485 24.5353C78.2445 25.1836 77.8711 25.9549 77.3283 26.849C76.7855 27.7431 76.2054 28.4802 75.588 29.0603C75.4932 29.9562 75.4855 30.6443 75.5649 31.1244C75.6442 31.6046 75.706 31.9093 75.7501 32.0386C75.8679 32.3378 76.1409 32.4521 76.5694 32.3812C76.9978 32.3104 77.4604 32.0329 77.9571 31.5486C78.4525 31.0569 78.9642 30.4336 79.492 29.6786C80.0198 28.9235 80.3177 28.4987 80.3855 28.404C80.4607 28.3081 80.507 28.2435 80.5242 28.2103ZM88.2316 22.0192L92.1948 21.2731C92.276 21.2597 92.3769 21.3189 92.4973 21.4508C92.6165 21.5752 92.7 21.7587 92.7477 22.0013C92.7671 22.165 92.5706 22.2848 92.1582 22.3605C90.9369 22.5927 89.4766 22.9858 87.7772 23.5399C87.7115 23.9226 87.5944 24.4769 87.426 25.2029C86.6856 28.391 86.4149 30.5871 86.6139 31.7912C86.7128 32.3895 86.9225 32.9467 87.2431 33.4629C87.7958 34.3277 88.4674 34.6948 89.2577 34.5642C89.8708 34.4628 90.358 34.2192 90.7191 33.8332C91.0889 33.4534 91.499 32.8582 91.9493 32.0477C92.0888 31.7894 92.26 31.6776 92.4631 31.7123C92.6612 31.7631 92.7797 31.9066 92.8188 32.143C92.9311 32.8226 92.633 33.4524 91.9245 34.0324C91.2172 34.6198 90.4129 34.9879 89.5117 35.1369C88.6179 35.2846 87.788 35.0841 87.0219 34.5353C86.2632 33.9853 85.7936 33.1637 85.6129 32.0704C85.492 31.3391 85.4549 30.5409 85.5017 29.6757C85.5484 28.8104 85.713 27.717 85.9954 26.3955C86.2766 25.0666 86.4569 24.183 86.5363 23.745C85.0072 23.9977 84.151 24.1202 83.9676 24.1126C83.4014 24.0847 83.086 23.8978 83.0212 23.5519C83.0103 23.4398 83.0836 23.3556 83.2412 23.2992L86.7929 22.4049L88.5048 18.0242C88.7024 17.521 88.912 17.2511 89.1336 17.2145C89.2223 17.1999 89.3281 17.1975 89.4512 17.2076C89.9029 17.2316 90.147 17.3544 90.1837 17.576C90.2191 17.7902 90.0524 18.1592 89.6837 18.6831C89.3149 19.2069 89.0892 19.5402 89.0066 19.6828C88.7302 20.1686 88.4719 20.9474 88.2316 22.0192ZM93.3793 23.2059C93.3855 23.1973 93.4977 23.0042 93.7161 22.6266C93.9357 22.2565 94.0911 22.0031 94.1824 21.8666L94.3563 21.6102C94.4808 21.4455 94.6915 21.3423 94.9881 21.3009C95.2836 21.2521 95.4632 21.3742 95.5268 21.6672C95.5402 21.7485 95.5184 21.938 95.4614 22.2358C95.4043 22.5336 95.3507 23.0812 95.3004 23.8787C95.1648 25.8134 95.1922 27.357 95.3827 28.5093C95.4596 28.9747 95.5658 29.2038 95.7012 29.1966C95.9302 29.1587 96.2365 28.8083 96.6202 28.1454C96.9693 27.5489 97.4573 26.2314 98.0841 24.1927C98.1842 23.9257 98.3265 23.777 98.5112 23.7465C98.6109 23.7528 98.6797 23.8249 98.7177 23.9628C98.7787 24.3321 98.7511 24.7844 98.6346 25.3197C98.4178 26.3496 97.9992 27.3522 97.3788 28.3274C96.7657 29.3014 96.2154 29.8287 95.7279 29.9093C95.0101 30.0203 94.5474 29.4935 94.3398 28.3288C94.1811 27.3685 94.1147 25.9794 94.1405 24.1615C93.6934 24.3947 93.3303 24.838 93.0512 25.4912C92.7796 26.1432 92.5371 27.0635 92.3238 28.2522C92.1018 29.4803 91.9254 30.181 91.7947 30.3544C91.6394 30.5167 91.454 30.6118 91.2386 30.6398C91.017 30.6765 90.8897 30.6178 90.8566 30.4639C90.8236 30.31 91.0215 29.1428 91.4504 26.9623C91.8792 24.7818 92.3968 22.5184 93.0031 20.172C93.6168 17.8243 93.9376 16.2991 93.9657 15.5964C93.9832 15.381 94.1576 15.2421 94.4887 15.1798C94.5995 15.1615 94.7128 15.158 94.8285 15.1692C95.1521 15.1992 95.3311 15.3176 95.3653 15.5244C95.3775 15.5983 95.3687 15.6832 95.3391 15.7792L95.2279 16.0707C94.8313 17.1607 94.2151 19.5391 93.3793 23.2059ZM99.3314 23.406C99.4755 23.3594 99.7406 22.9893 100.127 22.2956C100.513 21.602 100.677 21.0815 100.62 20.7344C100.612 20.6827 100.583 20.6266 100.535 20.5662C100.412 20.7384 100.171 21.2107 99.8134 21.9832C99.4628 22.7545 99.3021 23.2287 99.3314 23.406ZM104.014 24.3281C104.318 23.8682 104.513 23.7639 104.6 24.0151C104.616 24.1111 104.583 24.2797 104.501 24.5208C104.25 25.2528 103.814 26.0572 103.193 26.934C102.209 28.326 101.262 29.097 100.354 29.2472C99.9253 29.318 99.5395 29.2565 99.1963 29.0628C98.5507 28.6915 98.1326 27.9296 97.9421 26.7773C97.8335 26.1199 97.8803 25.1636 98.0827 23.9084C98.2912 22.6446 98.7328 21.4598 99.4076 20.3542C99.6988 19.8204 100.044 19.5206 100.443 19.4546C100.635 19.4229 100.841 19.4306 101.061 19.4776C101.582 19.5965 101.879 19.8776 101.952 20.3208C101.963 20.3872 101.958 20.498 101.938 20.6531C101.734 21.3015 101.361 22.0727 100.818 22.9668C100.275 23.8609 99.6954 24.598 99.0779 25.1781C98.9832 26.074 98.9755 26.7621 99.0548 27.2422C99.1342 27.7224 99.1959 28.0271 99.24 28.1564C99.3578 28.4556 99.6309 28.5699 100.059 28.4991C100.488 28.4282 100.95 28.1507 101.447 27.6664C101.942 27.1747 102.454 26.5514 102.982 25.7964C103.51 25.0413 103.808 24.6165 103.875 24.5218C103.951 24.4259 103.997 24.3613 104.014 24.3281ZM109.171 28.0517C108.711 28.1126 108.65 27.9482 108.987 27.5585C109.045 27.4958 109.086 27.4436 109.109 27.4017C109.63 26.739 109.963 26.1376 110.109 25.5974C110.166 25.3452 110.595 22.2465 111.395 16.3013L111.405 16.2884L111.401 16.2662C111.41 16.1813 111.425 15.9776 111.448 15.6552C111.509 14.3703 111.619 13.5894 111.778 13.3127C111.945 13.0348 112.102 12.8836 112.249 12.8592C112.609 12.8301 112.819 12.9055 112.879 13.0853C112.885 13.1222 112.875 13.2717 112.85 13.5339C112.597 15.5337 112.552 17.0322 112.717 18.0294C112.739 18.1623 112.819 18.2818 112.958 18.3879C113.097 18.4939 113.178 18.5451 113.2 18.5415C113.397 18.4937 113.665 17.774 114.004 16.3824C114.349 14.9822 114.572 14.1258 114.672 13.8133C114.771 13.4934 114.872 13.3249 114.976 13.3078C115.271 13.259 115.474 13.271 115.585 13.3437C115.702 13.4079 115.763 13.4584 115.769 13.4954C115.782 13.5237 115.744 13.7575 115.658 14.1968C115.57 14.6287 115.326 16.346 114.927 19.3488C114.534 22.3429 114.309 24.3114 114.252 25.2541C114.203 26.1956 114.214 26.8843 114.287 27.3201C114.317 27.4593 114.455 27.5844 114.701 27.6955C114.997 27.8288 115.153 27.9737 115.172 28.13C115.244 28.6114 115.14 28.879 114.86 28.9327C114.165 29.0401 113.71 28.4474 113.497 27.1548C113.324 26.1132 113.338 24.7944 113.537 23.1982C113.772 21.3153 113.88 20.3148 113.86 20.1966C113.801 20.4796 113.679 20.7275 113.494 20.9402C113.316 21.1516 113.15 21.2702 112.995 21.2958C112.847 21.3202 112.653 21.2271 112.414 21.0163C112.181 20.8042 112.049 20.6213 112.016 20.4674C111.983 20.3135 111.966 20.21 111.964 20.1571C111.873 20.4758 111.746 21.4074 111.584 22.9519C111.422 24.4964 111.181 25.6555 110.861 26.4293C110.466 27.39 109.903 27.9308 109.171 28.0517ZM122.488 27.0119C122.565 27.4773 122.441 27.7368 122.116 27.7905C121.939 27.8198 121.77 27.787 121.61 27.692C121.23 27.4588 120.99 27.0357 120.888 26.4226C120.788 25.8169 120.726 25.1897 120.702 24.541C120.686 23.8911 120.754 22.696 120.907 20.9558C120.241 21.1494 119.731 21.2828 119.379 21.3562C118.531 23.5226 117.603 25.4365 116.595 27.098C116.513 27.2025 116.383 27.2658 116.205 27.2877C116.02 27.3182 115.911 27.2756 115.876 27.1598C115.856 27.0343 115.926 26.795 116.088 26.4419C116.25 26.0889 116.345 25.8872 116.375 25.8367L118.205 21.5503C117.073 21.7297 116.369 21.7854 116.092 21.7173C115.816 21.6492 115.657 21.4933 115.617 21.2495C115.598 21.1387 115.668 21.0551 115.826 20.9987C117.018 20.6803 117.993 20.4281 118.751 20.242L120.545 15.734L120.75 12.5698C120.765 12.2941 120.887 12.1373 121.116 12.0995C121.344 12.0542 121.546 12.036 121.722 12.0449C122.259 12.0776 122.556 12.2713 122.615 12.6258C122.623 12.6776 122.595 13.2665 122.531 14.3926C122.467 15.5188 122.318 17.2128 122.085 19.4748C122.693 19.3439 123.503 19.1949 124.515 19.0276C124.59 19.0228 124.687 19.0826 124.807 19.2071C124.925 19.3242 125.006 19.4966 125.051 19.7244C125.07 19.8808 124.778 20.0201 124.176 20.1423C123.572 20.2572 122.838 20.4279 121.972 20.6544C121.684 23.8666 121.577 25.6979 121.651 26.1485C121.685 26.2643 121.827 26.4079 122.075 26.5793C122.317 26.7138 122.455 26.858 122.488 27.0119ZM120.045 19.5274L119.891 19.974L121.008 19.7097C121.045 19.0586 121.058 18.4949 121.047 18.0185C120.992 17.8228 120.838 17.9469 120.585 18.3909C120.338 18.8263 120.158 19.2051 120.045 19.5274ZM128.242 14.1659C128.124 14.1854 128.016 14.1274 127.917 13.9919C127.84 13.5265 127.726 13.1774 127.573 12.9446C127.428 12.7105 127.315 12.5965 127.232 12.6026C126.641 12.7002 126.19 13.9434 125.879 16.3321C125.638 18.178 125.543 19.9657 125.593 21.6951C125.608 22.1481 125.637 22.5075 125.681 22.7735C125.724 23.0394 125.803 23.1706 125.916 23.1671C126.289 23.0826 126.666 22.3982 127.045 21.1137C127.425 19.8292 127.64 18.606 127.691 17.4441C127.701 17.1389 127.693 16.8823 127.666 16.6742C127.563 16.6913 127.479 16.69 127.415 16.6702C127.199 16.5997 127.065 16.4549 127.013 16.2358C127.011 16.1299 127.042 16.0641 127.106 16.0383C129.034 15.4465 130.449 15.076 131.35 14.9271C131.471 14.9679 131.573 15.152 131.658 15.4796C131.671 15.6064 131.582 15.6893 131.391 15.7284C130.922 15.8287 130.462 15.958 130.01 16.1161C129.558 16.2743 129.307 16.3613 129.256 16.3773C129.2 17.1379 129.175 17.5631 129.183 17.653C129.19 17.7428 129.188 17.9176 129.178 18.1773C129 24.3079 128.338 28.5418 127.191 30.8788C126.798 31.6722 126.333 32.2993 125.794 32.7602C125.256 33.221 124.817 33.4795 124.477 33.5356C124.034 33.6089 123.798 33.5606 123.77 33.3907C123.761 33.339 123.807 33.2935 123.907 33.2542C123.999 33.2162 124.045 33.1935 124.044 33.1861C124.598 33.0035 125.103 32.5709 125.559 31.8884C125.674 31.7101 125.771 31.5385 125.85 31.3737C126.805 29.4401 127.529 26.4292 128.022 22.3409C128.088 21.8216 128.131 21.4161 128.151 21.1244C127.596 23.5989 126.846 24.9143 125.901 25.0705C125.162 25.1926 124.713 24.7698 124.553 23.8022C124.393 22.8345 124.447 21.0954 124.715 18.5848C124.982 16.0668 125.302 14.1244 125.676 12.7574C125.823 12.2246 125.964 11.8408 126.1 11.6059C126.242 11.3624 126.471 11.2107 126.787 11.1508C127.474 11.0373 127.953 11.4552 128.224 12.4045C128.295 12.6508 128.36 12.9968 128.418 13.4424C128.477 13.8881 128.418 14.1292 128.242 14.1659ZM132.819 11.2125C132.83 11.0969 132.837 10.9098 132.84 10.6513C132.85 10.3916 132.904 10.2083 133 10.1013C133.096 9.99437 133.289 9.92078 133.578 9.88056C133.875 9.83911 134.034 9.88487 134.056 10.0178C134.085 10.1496 133.96 11.9649 133.681 15.4638C133.409 18.9616 133.207 21.2033 133.074 22.189C132.948 23.1735 132.803 23.8995 132.637 24.367C132.471 24.8345 132.215 25.2791 131.867 25.7008C131.527 26.1213 131.267 26.3425 131.089 26.3644C130.91 26.3864 130.812 26.3647 130.794 26.2994C130.783 26.2329 130.81 26.1259 130.877 25.9783C131.513 24.5452 131.941 22.4521 132.161 19.699L132.819 11.2125ZM138.913 16.1245C138.713 16.1575 138.599 16.089 138.571 15.9191C138.565 15.8367 138.613 15.7112 138.714 15.5427C138.821 15.3656 138.956 15.0094 139.118 14.4742C139.47 13.3005 139.592 12.3849 139.484 11.7275C139.464 11.6093 139.409 11.4855 139.32 11.3561C139.121 11.0703 138.91 10.9457 138.689 10.9823C137.945 11.1204 137.302 13.2908 136.76 17.4934C136.609 18.6034 136.618 19.6644 136.785 20.6764C136.833 20.9645 136.944 21.2496 137.12 21.5317C137.469 22.0811 137.894 22.3143 138.397 22.2313C139.276 22.0861 140.115 21.5832 140.913 20.7226C141.197 20.4178 141.612 19.9432 142.158 19.299C142.704 18.6548 143.007 18.3278 143.066 18.318C143.096 18.3205 143.124 18.3501 143.149 18.4068C143.23 18.9472 142.735 19.8789 141.664 21.2019C140.765 22.2838 139.777 22.9139 138.698 23.0921C137.937 23.2178 137.308 23.1284 136.81 22.8237C136.142 22.4104 135.693 21.5095 135.464 20.1207C135.234 18.732 135.311 17.0612 135.694 15.1084C136.076 13.1482 136.748 11.5422 137.709 10.2905C137.93 10.0188 138.176 9.85665 138.449 9.80409C139.763 9.58679 140.491 9.90287 140.631 10.7524C140.707 11.2103 140.508 12.2107 140.035 13.7536C139.567 15.2878 139.193 16.0781 138.913 16.1245Z" fill="black" fill-opacity="0.3"/>
<defs>
<linearGradient id="paint0_linear_271_110" x1="3.60896" y1="42.279" x2="12.0592" y2="46.4661" gradientUnits="userSpaceOnUse">
<stop stop-color="#00C9FF"/>
<stop offset="1" stop-color="#92FE9D"/>
</linearGradient>
<linearGradient id="paint1_linear_271_110" x1="18.5274" y1="35.75" x2="141.472" y2="15.6377" gradientUnits="userSpaceOnUse">
<stop stop-color="#00C9FF"/>
<stop offset="1" stop-color="#92FE9D"/>
</linearGradient>
</defs>
</svg>
