<svg width="30" height="30" viewBox="0 0 30 30" fill="none" xmlns="http://www.w3.org/2000/svg">
<path d="M11.427 19.375C11.238 19.375 11.0569 19.3383 10.8836 19.2651C10.7103 19.1888 10.5576 19.0881 10.4253 18.963C10.2961 18.8348 10.1922 18.6869 10.1134 18.519C10.0378 18.3512 10 18.1757 10 17.9926V11.3824C10 11.1993 10.0378 11.0238 10.1134 10.856C10.1922 10.6881 10.2961 10.5417 10.4253 10.4165C10.5576 10.2884 10.7103 10.1877 10.8836 10.1145C11.0569 10.0382 11.238 10 11.427 10H18.2504C18.4394 10 18.6205 10.0382 18.7938 10.1145C18.9671 10.1877 19.1183 10.2884 19.2475 10.4165C19.3797 10.5417 19.4837 10.6881 19.5593 10.856C19.638 11.0238 19.6774 11.1993 19.6774 11.3824V17.9926C19.6774 18.1757 19.638 18.3512 19.5593 18.519C19.4837 18.6869 19.3797 18.8348 19.2475 18.963C19.1183 19.0881 18.9671 19.1888 18.7938 19.2651C18.6205 19.3383 18.4394 19.375 18.2504 19.375H11.427ZM18.2268 18.4366C18.2929 18.4366 18.3543 18.4244 18.411 18.4C18.4709 18.3755 18.5229 18.342 18.5669 18.2992C18.6111 18.2566 18.6457 18.2077 18.671 18.1528C18.6961 18.0948 18.7087 18.0337 18.7087 17.9697V11.4053C18.7087 11.3413 18.6961 11.2818 18.671 11.2268C18.6457 11.1688 18.6111 11.1184 18.5669 11.0758C18.5229 11.033 18.4709 10.9995 18.411 10.975C18.3543 10.9506 18.2929 10.9384 18.2268 10.9384H11.4506C11.3845 10.9384 11.3215 10.9506 11.2616 10.975C11.2049 10.9995 11.1545 11.033 11.1105 11.0758C11.0664 11.1184 11.0317 11.1688 11.0065 11.2268C10.9813 11.2818 10.9687 11.3413 10.9687 11.4053V17.9697C10.9687 18.0337 10.9813 18.0948 11.0065 18.1528C11.0317 18.2077 11.0664 18.2566 11.1105 18.2992C11.1545 18.342 11.2049 18.3755 11.2616 18.4C11.3215 18.4244 11.3845 18.4366 11.4506 18.4366H18.2268Z" fill="black" fill-opacity="0.8956"/>
</svg>
