<svg width="30" height="30" viewBox="0 0 30 30" fill="none" xmlns="http://www.w3.org/2000/svg">
<path d="M10.498 15C10.4297 15 10.3646 14.987 10.3027 14.9609C10.2441 14.9349 10.1921 14.8991 10.1465 14.8535C10.1009 14.8079 10.0651 14.7559 10.0391 14.6973C10.013 14.6354 10 14.5703 10 14.502C10 14.4336 10.013 14.3701 10.0391 14.3115C10.0651 14.2497 10.1009 14.196 10.1465 14.1504C10.1921 14.1016 10.2441 14.0641 10.3027 14.0381C10.3646 14.012 10.4297 13.999 10.498 13.999H19.502C19.5703 13.999 19.6338 14.012 19.6924 14.0381C19.7542 14.0641 19.8079 14.1016 19.8535 14.1504C19.8991 14.196 19.9349 14.2497 19.9609 14.3115C19.987 14.3701 20 14.4336 20 14.502C20 14.5703 19.987 14.6354 19.9609 14.6973C19.9349 14.7559 19.8991 14.8079 19.8535 14.8535C19.8079 14.8991 19.7542 14.9349 19.6924 14.9609C19.6338 14.987 19.5703 15 19.502 15H10.498Z" fill="black" fill-opacity="0.8956"/>
</svg>
